<mxfile host="app.diagrams.net" modified="2021-07-17T10:01:50.752Z" agent="5.0 (Macintosh; Intel Mac OS X 10_13_6) AppleWebKit/537.36 (KHTML, like Gecko) Chrome/91.0.4472.114 Safari/537.36" etag="IFaS3SttcSPadLYdYh97" version="14.9.0" type="github">
  <diagram id="qsbLs_0vBFEWawjqLAn2" name="第 1 页">
    <mxGraphModel dx="1261" dy="715" grid="1" gridSize="10" guides="1" tooltips="1" connect="1" arrows="1" fold="1" page="1" pageScale="1" pageWidth="827" pageHeight="1169" math="0" shadow="0">
      <root>
        <mxCell id="0" />
        <mxCell id="1" parent="0" />
        <mxCell id="RTkLUhNrVBMjqvwFvZf1-1" value="浏览器进程" style="text;html=1;strokeColor=none;fillColor=none;align=center;verticalAlign=middle;rounded=0;labelPosition=center;verticalLabelPosition=middle;whiteSpace=wrap;" vertex="1" parent="1">
          <mxGeometry x="60" y="50" width="10" height="120" as="geometry" />
        </mxCell>
        <mxCell id="RTkLUhNrVBMjqvwFvZf1-3" value="" style="rounded=0;whiteSpace=wrap;html=1;" vertex="1" parent="1">
          <mxGeometry x="100" y="60" width="1070" height="100" as="geometry" />
        </mxCell>
        <mxCell id="RTkLUhNrVBMjqvwFvZf1-14" value="" style="edgeStyle=orthogonalEdgeStyle;rounded=0;orthogonalLoop=1;jettySize=auto;html=1;" edge="1" parent="1" source="RTkLUhNrVBMjqvwFvZf1-4" target="RTkLUhNrVBMjqvwFvZf1-13">
          <mxGeometry relative="1" as="geometry" />
        </mxCell>
        <mxCell id="RTkLUhNrVBMjqvwFvZf1-4" value="用户输入" style="rounded=0;whiteSpace=wrap;html=1;fillColor=#dae8fc;strokeColor=#6c8ebf;" vertex="1" parent="1">
          <mxGeometry x="120" y="80" width="90" height="60" as="geometry" />
        </mxCell>
        <mxCell id="RTkLUhNrVBMjqvwFvZf1-5" value="网络进程" style="text;html=1;strokeColor=none;fillColor=none;align=center;verticalAlign=middle;rounded=0;labelPosition=center;verticalLabelPosition=middle;whiteSpace=wrap;" vertex="1" parent="1">
          <mxGeometry x="60" y="190" width="10" height="120" as="geometry" />
        </mxCell>
        <mxCell id="RTkLUhNrVBMjqvwFvZf1-6" value="" style="rounded=0;whiteSpace=wrap;html=1;" vertex="1" parent="1">
          <mxGeometry x="100" y="200" width="1070" height="100" as="geometry" />
        </mxCell>
        <mxCell id="RTkLUhNrVBMjqvwFvZf1-19" value="" style="edgeStyle=orthogonalEdgeStyle;rounded=0;orthogonalLoop=1;jettySize=auto;html=1;" edge="1" parent="1" source="RTkLUhNrVBMjqvwFvZf1-7" target="RTkLUhNrVBMjqvwFvZf1-18">
          <mxGeometry relative="1" as="geometry" />
        </mxCell>
        <mxCell id="RTkLUhNrVBMjqvwFvZf1-7" value="发起URL请求" style="rounded=0;whiteSpace=wrap;html=1;fillColor=#dae8fc;strokeColor=#6c8ebf;" vertex="1" parent="1">
          <mxGeometry x="480" y="220" width="100" height="60" as="geometry" />
        </mxCell>
        <mxCell id="RTkLUhNrVBMjqvwFvZf1-10" value="渲染进程" style="text;html=1;strokeColor=none;fillColor=none;align=center;verticalAlign=middle;rounded=0;labelPosition=center;verticalLabelPosition=middle;whiteSpace=wrap;" vertex="1" parent="1">
          <mxGeometry x="60" y="330" width="10" height="120" as="geometry" />
        </mxCell>
        <mxCell id="RTkLUhNrVBMjqvwFvZf1-11" value="" style="rounded=0;whiteSpace=wrap;html=1;" vertex="1" parent="1">
          <mxGeometry x="100" y="340" width="1070" height="100" as="geometry" />
        </mxCell>
        <mxCell id="RTkLUhNrVBMjqvwFvZf1-30" value="" style="edgeStyle=orthogonalEdgeStyle;rounded=1;jumpSize=0;orthogonalLoop=1;jettySize=auto;html=1;strokeColor=#000000;" edge="1" parent="1" source="RTkLUhNrVBMjqvwFvZf1-12">
          <mxGeometry relative="1" as="geometry">
            <mxPoint x="1120" y="140" as="targetPoint" />
          </mxGeometry>
        </mxCell>
        <mxCell id="RTkLUhNrVBMjqvwFvZf1-12" value="页面解析和&lt;br&gt;子资源加载" style="rounded=0;whiteSpace=wrap;html=1;fillColor=#dae8fc;strokeColor=#6c8ebf;" vertex="1" parent="1">
          <mxGeometry x="980" y="360" width="120" height="60" as="geometry" />
        </mxCell>
        <mxCell id="RTkLUhNrVBMjqvwFvZf1-16" value="" style="edgeStyle=orthogonalEdgeStyle;rounded=0;orthogonalLoop=1;jettySize=auto;html=1;" edge="1" parent="1" source="RTkLUhNrVBMjqvwFvZf1-13" target="RTkLUhNrVBMjqvwFvZf1-15">
          <mxGeometry relative="1" as="geometry" />
        </mxCell>
        <mxCell id="RTkLUhNrVBMjqvwFvZf1-13" value="处理输入的URL" style="rounded=0;whiteSpace=wrap;html=1;" vertex="1" parent="1">
          <mxGeometry x="240" y="80" width="100" height="60" as="geometry" />
        </mxCell>
        <mxCell id="RTkLUhNrVBMjqvwFvZf1-17" value="" style="edgeStyle=orthogonalEdgeStyle;rounded=1;orthogonalLoop=1;jettySize=auto;html=1;entryX=0;entryY=0.5;entryDx=0;entryDy=0;exitX=0.5;exitY=1;exitDx=0;exitDy=0;" edge="1" parent="1" source="RTkLUhNrVBMjqvwFvZf1-15" target="RTkLUhNrVBMjqvwFvZf1-7">
          <mxGeometry relative="1" as="geometry" />
        </mxCell>
        <mxCell id="RTkLUhNrVBMjqvwFvZf1-15" value="开始导航" style="rounded=0;whiteSpace=wrap;html=1;" vertex="1" parent="1">
          <mxGeometry x="370" y="80" width="100" height="60" as="geometry" />
        </mxCell>
        <mxCell id="RTkLUhNrVBMjqvwFvZf1-26" value="" style="edgeStyle=orthogonalEdgeStyle;rounded=1;orthogonalLoop=1;jettySize=auto;html=1;exitX=1;exitY=0.5;exitDx=0;exitDy=0;" edge="1" parent="1" source="RTkLUhNrVBMjqvwFvZf1-18" target="RTkLUhNrVBMjqvwFvZf1-20">
          <mxGeometry relative="1" as="geometry" />
        </mxCell>
        <mxCell id="RTkLUhNrVBMjqvwFvZf1-35" value="" style="edgeStyle=orthogonalEdgeStyle;rounded=1;jumpSize=0;orthogonalLoop=1;jettySize=auto;html=1;strokeColor=#000000;" edge="1" parent="1" source="RTkLUhNrVBMjqvwFvZf1-18" target="RTkLUhNrVBMjqvwFvZf1-21">
          <mxGeometry relative="1" as="geometry" />
        </mxCell>
        <mxCell id="RTkLUhNrVBMjqvwFvZf1-18" value="读取响应&lt;br&gt;头信息" style="whiteSpace=wrap;html=1;rounded=0;" vertex="1" parent="1">
          <mxGeometry x="615" y="220" width="80" height="60" as="geometry" />
        </mxCell>
        <mxCell id="RTkLUhNrVBMjqvwFvZf1-20" value="准备渲染进程" style="whiteSpace=wrap;html=1;rounded=0;fillColor=#dae8fc;strokeColor=#6c8ebf;" vertex="1" parent="1">
          <mxGeometry x="680" y="80" width="80" height="60" as="geometry" />
        </mxCell>
        <mxCell id="RTkLUhNrVBMjqvwFvZf1-23" value="" style="edgeStyle=orthogonalEdgeStyle;rounded=1;orthogonalLoop=1;jettySize=auto;html=1;entryX=0;entryY=0.5;entryDx=0;entryDy=0;exitX=1;exitY=0.5;exitDx=0;exitDy=0;" edge="1" parent="1" source="RTkLUhNrVBMjqvwFvZf1-21" target="RTkLUhNrVBMjqvwFvZf1-12">
          <mxGeometry relative="1" as="geometry" />
        </mxCell>
        <mxCell id="RTkLUhNrVBMjqvwFvZf1-21" value="读取响应体数据" style="whiteSpace=wrap;html=1;rounded=0;" vertex="1" parent="1">
          <mxGeometry x="730" y="220" width="170" height="60" as="geometry" />
        </mxCell>
        <mxCell id="RTkLUhNrVBMjqvwFvZf1-24" value="页面加载完成" style="whiteSpace=wrap;html=1;rounded=0;fillColor=#f5f5f5;strokeColor=#666666;fontColor=#333333;" vertex="1" parent="1">
          <mxGeometry x="1070" y="80" width="80" height="60" as="geometry" />
        </mxCell>
        <mxCell id="RTkLUhNrVBMjqvwFvZf1-38" value="" style="edgeStyle=orthogonalEdgeStyle;rounded=1;jumpSize=0;orthogonalLoop=1;jettySize=auto;html=1;strokeColor=#000000;entryX=0.25;entryY=1;entryDx=0;entryDy=0;" edge="1" parent="1" source="RTkLUhNrVBMjqvwFvZf1-28" target="RTkLUhNrVBMjqvwFvZf1-36">
          <mxGeometry relative="1" as="geometry">
            <Array as="points">
              <mxPoint x="920" y="390" />
            </Array>
          </mxGeometry>
        </mxCell>
        <mxCell id="RTkLUhNrVBMjqvwFvZf1-28" value="提交文档" style="rounded=0;whiteSpace=wrap;html=1;fillColor=#dae8fc;strokeColor=#6c8ebf;" vertex="1" parent="1">
          <mxGeometry x="770" y="360" width="120" height="60" as="geometry" />
        </mxCell>
        <mxCell id="RTkLUhNrVBMjqvwFvZf1-34" value="" style="edgeStyle=orthogonalEdgeStyle;rounded=1;jumpSize=0;orthogonalLoop=1;jettySize=auto;html=1;entryX=0.5;entryY=0;entryDx=0;entryDy=0;" edge="1" parent="1" source="RTkLUhNrVBMjqvwFvZf1-20" target="RTkLUhNrVBMjqvwFvZf1-28">
          <mxGeometry relative="1" as="geometry">
            <mxPoint x="830" y="370" as="targetPoint" />
          </mxGeometry>
        </mxCell>
        <mxCell id="RTkLUhNrVBMjqvwFvZf1-36" value="确认文档&lt;br&gt;被提交" style="whiteSpace=wrap;html=1;rounded=0;" vertex="1" parent="1">
          <mxGeometry x="900" y="80" width="80" height="60" as="geometry" />
        </mxCell>
      </root>
    </mxGraphModel>
  </diagram>
</mxfile>
